<svg width="70" height="25" viewBox="0 0 70 25" fill="none" xmlns="http://www.w3.org/2000/svg">
<rect width="70" height="25" rx="12.5" fill="#DDDDDD"/>
<path d="M24.0742 16C23.9115 16 23.8301 15.9105 23.8301 15.7314V9.2666C23.8301 9.08757 23.9115 8.99805 24.0742 8.99805H25.876C27.2562 8.99805 28.2148 9.30404 28.752 9.91602C29.2923 10.5247 29.5625 11.3825 29.5625 12.4893C29.5625 13.596 29.2923 14.4587 28.752 15.0771C28.2148 15.6924 27.2562 16 25.876 16H24.0742ZM24.7676 15.1992H25.832C26.9062 15.1992 27.6289 14.9714 28 14.5156C28.3743 14.0599 28.5615 13.3844 28.5615 12.4893C28.5615 11.5941 28.3743 10.9202 28 10.4678C27.6289 10.0153 26.9062 9.78906 25.832 9.78906H24.7676V15.1992ZM31.0859 16C30.9232 16 30.8418 15.9105 30.8418 15.7314V9.2666C30.8418 9.08757 30.9232 8.99805 31.0859 8.99805H31.5352C31.6979 8.99805 31.7793 9.08757 31.7793 9.2666V15.7314C31.7793 15.9105 31.6979 16 31.5352 16H31.0859ZM33.4199 15.4727C33.2474 15.3164 33.2018 15.1797 33.2832 15.0625L33.5371 14.6963C33.625 14.5693 33.7666 14.5791 33.9619 14.7256C34.2191 14.9176 34.486 15.0755 34.7627 15.1992C35.0426 15.3229 35.3812 15.3848 35.7783 15.3848C36.0713 15.3848 36.3187 15.3408 36.5205 15.2529C36.7223 15.165 36.8835 15.0397 37.0039 14.877C37.1276 14.7109 37.1895 14.5107 37.1895 14.2764C37.1895 14.1071 37.1634 13.9508 37.1113 13.8076C37.0625 13.6611 36.9827 13.5391 36.8721 13.4414C36.7614 13.3438 36.6458 13.2673 36.5254 13.2119C36.3268 13.1208 36.029 13.015 35.6318 12.8945C35.238 12.7741 34.8929 12.6439 34.5967 12.5039C34.3037 12.3639 34.0693 12.1947 33.8936 11.9961C33.721 11.7975 33.6055 11.5941 33.5469 11.3857C33.4915 11.1742 33.4639 10.9333 33.4639 10.6631C33.4639 10.2497 33.5843 9.89323 33.8252 9.59375C34.0661 9.29427 34.3607 9.0957 34.709 8.99805C35.0605 8.90039 35.417 8.85156 35.7783 8.85156C36.1917 8.85156 36.5514 8.90527 36.8574 9.0127C37.1634 9.12012 37.4368 9.26009 37.6777 9.43262C37.847 9.55306 37.8861 9.68001 37.7949 9.81348L37.5459 10.1699C37.471 10.2773 37.3245 10.2546 37.1064 10.1016C36.9404 9.98438 36.737 9.87533 36.4961 9.77441C36.2585 9.67025 36.0225 9.61816 35.7881 9.61816C35.4886 9.61816 35.2396 9.65397 35.041 9.72559C34.8424 9.79395 34.6862 9.91113 34.5723 10.0771C34.4583 10.2432 34.4014 10.4352 34.4014 10.6533C34.4014 10.79 34.4144 10.917 34.4404 11.0342C34.4665 11.1481 34.5332 11.2653 34.6406 11.3857C34.748 11.5062 34.8783 11.599 35.0312 11.6641C35.2363 11.752 35.5537 11.8561 35.9834 11.9766C36.4163 12.0938 36.7939 12.2386 37.1162 12.4111C37.4157 12.5706 37.6305 12.7383 37.7607 12.9141C37.8942 13.0866 37.9967 13.2754 38.0684 13.4805C38.1432 13.6823 38.1807 13.9102 38.1807 14.1641C38.1807 14.6263 38.0618 15.012 37.8242 15.3213C37.5866 15.6305 37.305 15.8454 36.9795 15.9658C36.654 16.0863 36.2454 16.1465 35.7539 16.1465C35.1647 16.1465 34.6764 16.0781 34.2891 15.9414C33.9017 15.8047 33.612 15.6484 33.4199 15.4727ZM39.0645 16C38.8952 16 38.8512 15.8926 38.9326 15.6777L41.3643 9.2959C41.4391 9.09733 41.5465 8.99805 41.6865 8.99805H42.3701C42.5101 8.99805 42.6175 9.09733 42.6924 9.2959L45.124 15.6777C45.2054 15.8926 45.1615 16 44.9922 16H44.4941C44.3216 16 44.2044 15.9202 44.1426 15.7607L43.5322 14.1445H40.5244L39.9141 15.7607C39.8522 15.9202 39.735 16 39.5625 16H39.0645ZM40.832 13.3438H43.2246L42.4775 11.3906C42.4092 11.2083 42.3408 11.0065 42.2725 10.7852C42.2074 10.5638 42.1292 10.2497 42.0381 9.84277H42.0186C41.9274 10.2497 41.8477 10.5638 41.7793 10.7852C41.7142 11.0065 41.6475 11.2083 41.5791 11.3906L40.832 13.3438ZM46.3008 16C46.138 16 46.0566 15.9105 46.0566 15.7314V9.2666C46.0566 9.08757 46.138 8.99805 46.3008 8.99805H48.2051C49.3118 8.99805 50.0573 9.17708 50.4414 9.53516C50.8255 9.89323 51.0176 10.3245 51.0176 10.8291C51.0176 11.2295 50.8581 11.5697 50.5391 11.8496C50.2201 12.1263 49.9108 12.2891 49.6113 12.3379V12.3525C49.9401 12.3818 50.3063 12.5462 50.71 12.8457C51.1169 13.1419 51.3203 13.5456 51.3203 14.0566C51.3203 14.61 51.1152 15.0723 50.7051 15.4434C50.2982 15.8145 49.5462 16 48.4492 16H46.3008ZM46.9941 15.1992H48.293C48.9928 15.1992 49.5055 15.113 49.8311 14.9404C50.1566 14.7679 50.3193 14.4635 50.3193 14.0273C50.3193 13.6237 50.1533 13.3112 49.8213 13.0898C49.4925 12.8685 48.9831 12.7578 48.293 12.7578H46.9941V15.1992ZM46.9941 12.0547H48.2197C48.7633 12.0547 49.2061 11.9391 49.5479 11.708C49.8929 11.4736 50.0654 11.1807 50.0654 10.8291C50.0654 10.4938 49.9368 10.2383 49.6797 10.0625C49.4225 9.88672 48.9359 9.79883 48.2197 9.79883H46.9941V12.0547ZM52.9316 16C52.7689 16 52.6875 15.9105 52.6875 15.7314V9.2666C52.6875 9.08757 52.7689 8.99805 52.9316 8.99805H53.3809C53.5436 8.99805 53.625 9.08757 53.625 9.2666V15.1992H56.8623C57.0413 15.1992 57.1309 15.2725 57.1309 15.4189V15.7803C57.1309 15.9268 57.0413 16 56.8623 16H52.9316ZM58.4785 16C58.3158 16 58.2344 15.9105 58.2344 15.7314V9.2666C58.2344 9.08757 58.3158 8.99805 58.4785 8.99805H62.751C62.93 8.99805 63.0195 9.07129 63.0195 9.21777V9.5791C63.0195 9.72559 62.93 9.79883 62.751 9.79883H59.1719V11.9668H62.458C62.637 11.9668 62.7266 12.04 62.7266 12.1865V12.5479C62.7266 12.6943 62.637 12.7676 62.458 12.7676H59.1719V15.1992H62.8975C63.0765 15.1992 63.166 15.2725 63.166 15.4189V15.7803C63.166 15.9268 63.0765 16 62.8975 16H58.4785Z" fill="#696969"/>
<circle cx="12" cy="12" r="7" fill="#B0B0B0"/>
</svg>
