<svg xmlns="http://www.w3.org/2000/svg" width="82" height="25" viewBox="0 0 82 25" fill="none">
  <g clip-path="url(#clip0_26_2)">
    <path d="M69.5 0H12.5C5.59644 0 0 5.59644 0 12.5C0 19.4036 5.59644 25 12.5 25H69.5C76.4036 25 82 19.4036 82 12.5C82 5.59644 76.4036 0 69.5 0Z" fill="#D11E1E"/>
    <mask id="path-2-outside-1_26_2" maskUnits="userSpaceOnUse" x="23.9131" y="7.13672" width="49" height="10" fill="black">
      <rect fill="white" x="23.9131" y="7.13672" width="49" height="10"/>
      <path d="M25.1816 16C25.0026 16 24.9131 15.9015 24.9131 15.7046V8.59326C24.9131 8.39632 25.0026 8.29785 25.1816 8.29785H25.6758C25.8548 8.29785 25.9443 8.39632 25.9443 8.59326V15.7046C25.9443 15.9015 25.8548 16 25.6758 16H25.1816ZM28.0391 16C27.86 16 27.7705 15.9015 27.7705 15.7046V8.59326C27.7705 8.39632 27.86 8.29785 28.0391 8.29785H28.7266C28.9772 8.29785 29.1562 8.38737 29.2637 8.56641L32.626 14.2007H32.6475C32.6403 14.0575 32.6367 13.9142 32.6367 13.771V8.59326C32.6367 8.39632 32.7262 8.29785 32.9053 8.29785H33.3994C33.5785 8.29785 33.668 8.39632 33.668 8.59326V15.7046C33.668 15.9015 33.5785 16 33.3994 16H32.9268C32.6761 16 32.4971 15.9105 32.3896 15.7314L28.8125 9.75342H28.791C28.7982 9.89665 28.8018 10.0399 28.8018 10.1831V15.7046C28.8018 15.9015 28.7122 16 28.5332 16H28.0391ZM35.1074 16C34.9212 16 34.8729 15.8818 34.9624 15.6455L37.6372 8.62549C37.7196 8.40706 37.8377 8.29785 37.9917 8.29785H38.7437C38.8976 8.29785 39.0158 8.40706 39.0981 8.62549L41.7729 15.6455C41.8625 15.8818 41.8141 16 41.6279 16H41.0801C40.8903 16 40.7614 15.9123 40.6934 15.7368L40.022 13.959H36.7134L36.042 15.7368C35.974 15.9123 35.8451 16 35.6553 16H35.1074ZM37.0518 13.0781H39.6836L38.8618 10.9297C38.7866 10.7292 38.7114 10.5072 38.6362 10.2637C38.5646 10.0202 38.4787 9.67464 38.3784 9.22705H38.3569C38.2567 9.67464 38.1689 10.0202 38.0938 10.2637C38.0221 10.5072 37.9487 10.7292 37.8735 10.9297L37.0518 13.0781ZM42.3799 12.1489C42.3799 10.8957 42.6896 9.91455 43.3091 9.20557C43.9321 8.493 44.8255 8.13672 45.9893 8.13672C46.6696 8.13672 47.2318 8.25309 47.6758 8.48584C48.1198 8.71501 48.4385 9.03011 48.6318 9.43115C48.7321 9.63883 48.716 9.78206 48.5835 9.86084L48.1592 10.1079C48.016 10.1903 47.8888 10.1222 47.7778 9.90381C47.6597 9.67822 47.4663 9.46696 47.1978 9.27002C46.9292 9.07308 46.5443 8.97461 46.043 8.97461C45.1478 8.97461 44.4961 9.25391 44.0879 9.8125C43.6833 10.3675 43.481 11.1463 43.481 12.1489C43.481 13.1515 43.6833 13.9321 44.0879 14.4907C44.4961 15.0457 45.1478 15.3232 46.043 15.3232C46.5586 15.3232 46.9704 15.2051 47.2783 14.9688C47.5898 14.7324 47.8154 14.4854 47.9551 14.2275C48.0661 14.0199 48.195 13.9572 48.3418 14.0396L48.7876 14.292C48.9165 14.3672 48.9272 14.5104 48.8198 14.7217C48.6086 15.1335 48.2648 15.4772 47.7886 15.7529C47.3123 16.0251 46.7126 16.1611 45.9893 16.1611C44.8255 16.1611 43.9321 15.8066 43.3091 15.0977C42.6896 14.3851 42.3799 13.4022 42.3799 12.1489ZM49.9048 9.22168C49.7078 9.22168 49.6094 9.14111 49.6094 8.97998V8.53955C49.6094 8.37842 49.7078 8.29785 49.9048 8.29785H55.5874C55.7843 8.29785 55.8828 8.37842 55.8828 8.53955V8.97998C55.8828 9.14111 55.7843 9.22168 55.5874 9.22168H53.2617V15.7046C53.2617 15.9015 53.1722 16 52.9932 16H52.499C52.32 16 52.2305 15.9015 52.2305 15.7046V9.22168H49.9048ZM57.2578 16C57.0788 16 56.9893 15.9015 56.9893 15.7046V8.59326C56.9893 8.39632 57.0788 8.29785 57.2578 8.29785H57.752C57.931 8.29785 58.0205 8.39632 58.0205 8.59326V15.7046C58.0205 15.9015 57.931 16 57.752 16H57.2578ZM59.3149 8.65234C59.2254 8.41602 59.2738 8.29785 59.46 8.29785H60.0078C60.2012 8.29785 60.3301 8.38558 60.3945 8.56104L62.1401 13.3682C62.2153 13.5794 62.3084 13.8641 62.4194 14.2222C62.534 14.5767 62.611 14.8595 62.6504 15.0708H62.6719C62.7113 14.8595 62.7865 14.5767 62.8975 14.2222C63.012 13.8641 63.1069 13.5794 63.1821 13.3682L64.9277 8.56104C64.9922 8.38558 65.1211 8.29785 65.3145 8.29785H65.8623C66.0485 8.29785 66.0968 8.41602 66.0073 8.65234L63.3916 15.6724C63.3092 15.8908 63.1911 16 63.0371 16H62.2852C62.1312 16 62.013 15.8908 61.9307 15.6724L59.3149 8.65234ZM67.3018 16C67.1227 16 67.0332 15.9015 67.0332 15.7046V8.59326C67.0332 8.39632 67.1227 8.29785 67.3018 8.29785H72.0015C72.1984 8.29785 72.2969 8.37842 72.2969 8.53955V8.93701C72.2969 9.09814 72.1984 9.17871 72.0015 9.17871H68.0645V11.5635H71.6792C71.8761 11.5635 71.9746 11.644 71.9746 11.8052V12.2026C71.9746 12.3638 71.8761 12.4443 71.6792 12.4443H68.0645V15.1191H72.1626C72.3595 15.1191 72.458 15.1997 72.458 15.3608V15.7583C72.458 15.9194 72.3595 16 72.1626 16H67.3018Z"/>
    </mask>
    <path d="M25.1816 16C25.0026 16 24.9131 15.9015 24.9131 15.7046V8.59326C24.9131 8.39632 25.0026 8.29785 25.1816 8.29785H25.6758C25.8548 8.29785 25.9443 8.39632 25.9443 8.59326V15.7046C25.9443 15.9015 25.8548 16 25.6758 16H25.1816ZM28.0391 16C27.86 16 27.7705 15.9015 27.7705 15.7046V8.59326C27.7705 8.39632 27.86 8.29785 28.0391 8.29785H28.7266C28.9772 8.29785 29.1562 8.38737 29.2637 8.56641L32.626 14.2007H32.6475C32.6403 14.0575 32.6367 13.9142 32.6367 13.771V8.59326C32.6367 8.39632 32.7262 8.29785 32.9053 8.29785H33.3994C33.5785 8.29785 33.668 8.39632 33.668 8.59326V15.7046C33.668 15.9015 33.5785 16 33.3994 16H32.9268C32.6761 16 32.4971 15.9105 32.3896 15.7314L28.8125 9.75342H28.791C28.7982 9.89665 28.8018 10.0399 28.8018 10.1831V15.7046C28.8018 15.9015 28.7122 16 28.5332 16H28.0391ZM35.1074 16C34.9212 16 34.8729 15.8818 34.9624 15.6455L37.6372 8.62549C37.7196 8.40706 37.8377 8.29785 37.9917 8.29785H38.7437C38.8976 8.29785 39.0158 8.40706 39.0981 8.62549L41.7729 15.6455C41.8625 15.8818 41.8141 16 41.6279 16H41.0801C40.8903 16 40.7614 15.9123 40.6934 15.7368L40.022 13.959H36.7134L36.042 15.7368C35.974 15.9123 35.8451 16 35.6553 16H35.1074ZM37.0518 13.0781H39.6836L38.8618 10.9297C38.7866 10.7292 38.7114 10.5072 38.6362 10.2637C38.5646 10.0202 38.4787 9.67464 38.3784 9.22705H38.3569C38.2567 9.67464 38.1689 10.0202 38.0938 10.2637C38.0221 10.5072 37.9487 10.7292 37.8735 10.9297L37.0518 13.0781ZM42.3799 12.1489C42.3799 10.8957 42.6896 9.91455 43.3091 9.20557C43.9321 8.493 44.8255 8.13672 45.9893 8.13672C46.6696 8.13672 47.2318 8.25309 47.6758 8.48584C48.1198 8.71501 48.4385 9.03011 48.6318 9.43115C48.7321 9.63883 48.716 9.78206 48.5835 9.86084L48.1592 10.1079C48.016 10.1903 47.8888 10.1222 47.7778 9.90381C47.6597 9.67822 47.4663 9.46696 47.1978 9.27002C46.9292 9.07308 46.5443 8.97461 46.043 8.97461C45.1478 8.97461 44.4961 9.25391 44.0879 9.8125C43.6833 10.3675 43.481 11.1463 43.481 12.1489C43.481 13.1515 43.6833 13.9321 44.0879 14.4907C44.4961 15.0457 45.1478 15.3232 46.043 15.3232C46.5586 15.3232 46.9704 15.2051 47.2783 14.9688C47.5898 14.7324 47.8154 14.4854 47.9551 14.2275C48.0661 14.0199 48.195 13.9572 48.3418 14.0396L48.7876 14.292C48.9165 14.3672 48.9272 14.5104 48.8198 14.7217C48.6086 15.1335 48.2648 15.4772 47.7886 15.7529C47.3123 16.0251 46.7126 16.1611 45.9893 16.1611C44.8255 16.1611 43.9321 15.8066 43.3091 15.0977C42.6896 14.3851 42.3799 13.4022 42.3799 12.1489ZM49.9048 9.22168C49.7078 9.22168 49.6094 9.14111 49.6094 8.97998V8.53955C49.6094 8.37842 49.7078 8.29785 49.9048 8.29785H55.5874C55.7843 8.29785 55.8828 8.37842 55.8828 8.53955V8.97998C55.8828 9.14111 55.7843 9.22168 55.5874 9.22168H53.2617V15.7046C53.2617 15.9015 53.1722 16 52.9932 16H52.499C52.32 16 52.2305 15.9015 52.2305 15.7046V9.22168H49.9048ZM57.2578 16C57.0788 16 56.9893 15.9015 56.9893 15.7046V8.59326C56.9893 8.39632 57.0788 8.29785 57.2578 8.29785H57.752C57.931 8.29785 58.0205 8.39632 58.0205 8.59326V15.7046C58.0205 15.9015 57.931 16 57.752 16H57.2578ZM59.3149 8.65234C59.2254 8.41602 59.2738 8.29785 59.46 8.29785H60.0078C60.2012 8.29785 60.3301 8.38558 60.3945 8.56104L62.1401 13.3682C62.2153 13.5794 62.3084 13.8641 62.4194 14.2222C62.534 14.5767 62.611 14.8595 62.6504 15.0708H62.6719C62.7113 14.8595 62.7865 14.5767 62.8975 14.2222C63.012 13.8641 63.1069 13.5794 63.1821 13.3682L64.9277 8.56104C64.9922 8.38558 65.1211 8.29785 65.3145 8.29785H65.8623C66.0485 8.29785 66.0968 8.41602 66.0073 8.65234L63.3916 15.6724C63.3092 15.8908 63.1911 16 63.0371 16H62.2852C62.1312 16 62.013 15.8908 61.9307 15.6724L59.3149 8.65234ZM67.3018 16C67.1227 16 67.0332 15.9015 67.0332 15.7046V8.59326C67.0332 8.39632 67.1227 8.29785 67.3018 8.29785H72.0015C72.1984 8.29785 72.2969 8.37842 72.2969 8.53955V8.93701C72.2969 9.09814 72.1984 9.17871 72.0015 9.17871H68.0645V11.5635H71.6792C71.8761 11.5635 71.9746 11.644 71.9746 11.8052V12.2026C71.9746 12.3638 71.8761 12.4443 71.6792 12.4443H68.0645V15.1191H72.1626C72.3595 15.1191 72.458 15.1997 72.458 15.3608V15.7583C72.458 15.9194 72.3595 16 72.1626 16H67.3018Z" fill="white"/>
    <path d="M25.1816 16C25.0026 16 24.9131 15.9015 24.9131 15.7046V8.59326C24.9131 8.39632 25.0026 8.29785 25.1816 8.29785H25.6758C25.8548 8.29785 25.9443 8.39632 25.9443 8.59326V15.7046C25.9443 15.9015 25.8548 16 25.6758 16H25.1816ZM28.0391 16C27.86 16 27.7705 15.9015 27.7705 15.7046V8.59326C27.7705 8.39632 27.86 8.29785 28.0391 8.29785H28.7266C28.9772 8.29785 29.1562 8.38737 29.2637 8.56641L32.626 14.2007H32.6475C32.6403 14.0575 32.6367 13.9142 32.6367 13.771V8.59326C32.6367 8.39632 32.7262 8.29785 32.9053 8.29785H33.3994C33.5785 8.29785 33.668 8.39632 33.668 8.59326V15.7046C33.668 15.9015 33.5785 16 33.3994 16H32.9268C32.6761 16 32.4971 15.9105 32.3896 15.7314L28.8125 9.75342H28.791C28.7982 9.89665 28.8018 10.0399 28.8018 10.1831V15.7046C28.8018 15.9015 28.7122 16 28.5332 16H28.0391ZM35.1074 16C34.9212 16 34.8729 15.8818 34.9624 15.6455L37.6372 8.62549C37.7196 8.40706 37.8377 8.29785 37.9917 8.29785H38.7437C38.8976 8.29785 39.0158 8.40706 39.0981 8.62549L41.7729 15.6455C41.8625 15.8818 41.8141 16 41.6279 16H41.0801C40.8903 16 40.7614 15.9123 40.6934 15.7368L40.022 13.959H36.7134L36.042 15.7368C35.974 15.9123 35.8451 16 35.6553 16H35.1074ZM37.0518 13.0781H39.6836L38.8618 10.9297C38.7866 10.7292 38.7114 10.5072 38.6362 10.2637C38.5646 10.0202 38.4787 9.67464 38.3784 9.22705H38.3569C38.2567 9.67464 38.1689 10.0202 38.0938 10.2637C38.0221 10.5072 37.9487 10.7292 37.8735 10.9297L37.0518 13.0781ZM42.3799 12.1489C42.3799 10.8957 42.6896 9.91455 43.3091 9.20557C43.9321 8.493 44.8255 8.13672 45.9893 8.13672C46.6696 8.13672 47.2318 8.25309 47.6758 8.48584C48.1198 8.71501 48.4385 9.03011 48.6318 9.43115C48.7321 9.63883 48.716 9.78206 48.5835 9.86084L48.1592 10.1079C48.016 10.1903 47.8888 10.1222 47.7778 9.90381C47.6597 9.67822 47.4663 9.46696 47.1978 9.27002C46.9292 9.07308 46.5443 8.97461 46.043 8.97461C45.1478 8.97461 44.4961 9.25391 44.0879 9.8125C43.6833 10.3675 43.481 11.1463 43.481 12.1489C43.481 13.1515 43.6833 13.9321 44.0879 14.4907C44.4961 15.0457 45.1478 15.3232 46.043 15.3232C46.5586 15.3232 46.9704 15.2051 47.2783 14.9688C47.5898 14.7324 47.8154 14.4854 47.9551 14.2275C48.0661 14.0199 48.195 13.9572 48.3418 14.0396L48.7876 14.292C48.9165 14.3672 48.9272 14.5104 48.8198 14.7217C48.6086 15.1335 48.2648 15.4772 47.7886 15.7529C47.3123 16.0251 46.7126 16.1611 45.9893 16.1611C44.8255 16.1611 43.9321 15.8066 43.3091 15.0977C42.6896 14.3851 42.3799 13.4022 42.3799 12.1489ZM49.9048 9.22168C49.7078 9.22168 49.6094 9.14111 49.6094 8.97998V8.53955C49.6094 8.37842 49.7078 8.29785 49.9048 8.29785H55.5874C55.7843 8.29785 55.8828 8.37842 55.8828 8.53955V8.97998C55.8828 9.14111 55.7843 9.22168 55.5874 9.22168H53.2617V15.7046C53.2617 15.9015 53.1722 16 52.9932 16H52.499C52.32 16 52.2305 15.9015 52.2305 15.7046V9.22168H49.9048ZM57.2578 16C57.0788 16 56.9893 15.9015 56.9893 15.7046V8.59326C56.9893 8.39632 57.0788 8.29785 57.2578 8.29785H57.752C57.931 8.29785 58.0205 8.39632 58.0205 8.59326V15.7046C58.0205 15.9015 57.931 16 57.752 16H57.2578ZM59.3149 8.65234C59.2254 8.41602 59.2738 8.29785 59.46 8.29785H60.0078C60.2012 8.29785 60.3301 8.38558 60.3945 8.56104L62.1401 13.3682C62.2153 13.5794 62.3084 13.8641 62.4194 14.2222C62.534 14.5767 62.611 14.8595 62.6504 15.0708H62.6719C62.7113 14.8595 62.7865 14.5767 62.8975 14.2222C63.012 13.8641 63.1069 13.5794 63.1821 13.3682L64.9277 8.56104C64.9922 8.38558 65.1211 8.29785 65.3145 8.29785H65.8623C66.0485 8.29785 66.0968 8.41602 66.0073 8.65234L63.3916 15.6724C63.3092 15.8908 63.1911 16 63.0371 16H62.2852C62.1312 16 62.013 15.8908 61.9307 15.6724L59.3149 8.65234ZM67.3018 16C67.1227 16 67.0332 15.9015 67.0332 15.7046V8.59326C67.0332 8.39632 67.1227 8.29785 67.3018 8.29785H72.0015C72.1984 8.29785 72.2969 8.37842 72.2969 8.53955V8.93701C72.2969 9.09814 72.1984 9.17871 72.0015 9.17871H68.0645V11.5635H71.6792C71.8761 11.5635 71.9746 11.644 71.9746 11.8052V12.2026C71.9746 12.3638 71.8761 12.4443 71.6792 12.4443H68.0645V15.1191H72.1626C72.3595 15.1191 72.458 15.1997 72.458 15.3608V15.7583C72.458 15.9194 72.3595 16 72.1626 16H67.3018Z" stroke="white" stroke-width="0.2" mask="url(#path-2-outside-1_26_2)"/>
    <path d="M13 19C16.866 19 20 15.866 20 12C20 8.13401 16.866 5 13 5C9.13401 5 6 8.13401 6 12C6 15.866 9.13401 19 13 19Z" fill="white"/>
  </g>
  <defs>
    <clipPath id="clip0_26_2">
      <rect width="82" height="25" fill="white"/>
    </clipPath>
  </defs>
</svg>