<svg xmlns="http://www.w3.org/2000/svg" width="82" height="25" viewBox="0 0 82 25" fill="none">
  <g clip-path="url(#clip0_26_10)">
    <path d="M69.5 0H12.5C5.59644 0 0 5.59644 0 12.5C0 19.4036 5.59644 25 12.5 25H69.5C76.4036 25 82 19.4036 82 12.5C82 5.59644 76.4036 0 69.5 0Z" fill="#157347"/>
    <mask id="path-2-outside-1_26_10" maskUnits="userSpaceOnUse" x="11.3376" y="7.13672" width="39" height="10" fill="black">
      <rect fill="white" x="11.3376" y="7.13672" width="39" height="10"/>
      <path d="M12.5263 16C12.3401 16 12.2917 15.8818 12.3812 15.6455L15.0561 8.62549C15.1384 8.40706 15.2566 8.29785 15.4105 8.29785H16.1625C16.3165 8.29785 16.4346 8.40706 16.517 8.62549L19.1918 15.6455C19.2813 15.8818 19.233 16 19.0468 16H18.4989C18.3091 16 18.1802 15.9123 18.1122 15.7368L17.4408 13.959H14.1322L13.4608 15.7368C13.3928 15.9123 13.2639 16 13.0741 16H12.5263ZM14.4706 13.0781H17.1024L16.2807 10.9297C16.2055 10.7292 16.1303 10.5072 16.0551 10.2637C15.9835 10.0202 15.8975 9.67464 15.7973 9.22705H15.7758C15.6755 9.67464 15.5878 10.0202 15.5126 10.2637C15.441 10.5072 15.3676 10.7292 15.2924 10.9297L14.4706 13.0781ZM19.7987 12.1489C19.7987 10.8957 20.1085 9.91455 20.7279 9.20557C21.351 8.493 22.2444 8.13672 23.4081 8.13672C24.0884 8.13672 24.6506 8.25309 25.0946 8.48584C25.5386 8.71501 25.8573 9.03011 26.0507 9.43115C26.1509 9.63883 26.1348 9.78206 26.0023 9.86084L25.578 10.1079C25.4348 10.1903 25.3077 10.1222 25.1967 9.90381C25.0785 9.67822 24.8852 9.46696 24.6166 9.27002C24.348 9.07308 23.9631 8.97461 23.4618 8.97461C22.5666 8.97461 21.9149 9.25391 21.5067 9.8125C21.1021 10.3675 20.8998 11.1463 20.8998 12.1489C20.8998 13.1515 21.1021 13.9321 21.5067 14.4907C21.9149 15.0457 22.5666 15.3232 23.4618 15.3232C23.9774 15.3232 24.3892 15.2051 24.6972 14.9688C25.0087 14.7324 25.2343 14.4854 25.3739 14.2275C25.4849 14.0199 25.6138 13.9572 25.7606 14.0396L26.2064 14.292C26.3353 14.3672 26.3461 14.5104 26.2387 14.7217C26.0274 15.1335 25.6837 15.4772 25.2074 15.7529C24.7312 16.0251 24.1314 16.1611 23.4081 16.1611C22.2444 16.1611 21.351 15.8066 20.7279 15.0977C20.1085 14.3851 19.7987 13.4022 19.7987 12.1489ZM27.3236 9.22168C27.1267 9.22168 27.0282 9.14111 27.0282 8.97998V8.53955C27.0282 8.37842 27.1267 8.29785 27.3236 8.29785H33.0062C33.2032 8.29785 33.3017 8.37842 33.3017 8.53955V8.97998C33.3017 9.14111 33.2032 9.22168 33.0062 9.22168H30.6806V15.7046C30.6806 15.9015 30.591 16 30.412 16H29.9179C29.7388 16 29.6493 15.9015 29.6493 15.7046V9.22168H27.3236ZM34.6767 16C34.4976 16 34.4081 15.9015 34.4081 15.7046V8.59326C34.4081 8.39632 34.4976 8.29785 34.6767 8.29785H35.1708C35.3498 8.29785 35.4394 8.39632 35.4394 8.59326V15.7046C35.4394 15.9015 35.3498 16 35.1708 16H34.6767ZM36.7338 8.65234C36.6443 8.41602 36.6926 8.29785 36.8788 8.29785H37.4267C37.62 8.29785 37.7489 8.38558 37.8134 8.56104L39.559 13.3682C39.6342 13.5794 39.7273 13.8641 39.8383 14.2222C39.9529 14.5767 40.0298 14.8595 40.0692 15.0708H40.0907C40.1301 14.8595 40.2053 14.5767 40.3163 14.2222C40.4309 13.8641 40.5258 13.5794 40.601 13.3682L42.3466 8.56104C42.411 8.38558 42.5399 8.29785 42.7333 8.29785H43.2811C43.4673 8.29785 43.5157 8.41602 43.4262 8.65234L40.8104 15.6724C40.7281 15.8908 40.6099 16 40.456 16H39.704C39.55 16 39.4319 15.8908 39.3495 15.6724L36.7338 8.65234ZM44.7206 16C44.5416 16 44.452 15.9015 44.452 15.7046V8.59326C44.452 8.39632 44.5416 8.29785 44.7206 8.29785H49.4203C49.6173 8.29785 49.7157 8.37842 49.7157 8.53955V8.93701C49.7157 9.09814 49.6173 9.17871 49.4203 9.17871H45.4833V11.5635H49.098C49.295 11.5635 49.3935 11.644 49.3935 11.8052V12.2026C49.3935 12.3638 49.295 12.4443 49.098 12.4443H45.4833V15.1191H49.5814C49.7784 15.1191 49.8769 15.1997 49.8769 15.3608V15.7583C49.8769 15.9194 49.7784 16 49.5814 16H44.7206Z"/>
    </mask>
    <path d="M12.5263 16C12.3401 16 12.2917 15.8818 12.3812 15.6455L15.0561 8.62549C15.1384 8.40706 15.2566 8.29785 15.4105 8.29785H16.1625C16.3165 8.29785 16.4346 8.40706 16.517 8.62549L19.1918 15.6455C19.2813 15.8818 19.233 16 19.0468 16H18.4989C18.3091 16 18.1802 15.9123 18.1122 15.7368L17.4408 13.959H14.1322L13.4608 15.7368C13.3928 15.9123 13.2639 16 13.0741 16H12.5263ZM14.4706 13.0781H17.1024L16.2807 10.9297C16.2055 10.7292 16.1303 10.5072 16.0551 10.2637C15.9835 10.0202 15.8975 9.67464 15.7973 9.22705H15.7758C15.6755 9.67464 15.5878 10.0202 15.5126 10.2637C15.441 10.5072 15.3676 10.7292 15.2924 10.9297L14.4706 13.0781ZM19.7987 12.1489C19.7987 10.8957 20.1085 9.91455 20.7279 9.20557C21.351 8.493 22.2444 8.13672 23.4081 8.13672C24.0884 8.13672 24.6506 8.25309 25.0946 8.48584C25.5386 8.71501 25.8573 9.03011 26.0507 9.43115C26.1509 9.63883 26.1348 9.78206 26.0023 9.86084L25.578 10.1079C25.4348 10.1903 25.3077 10.1222 25.1967 9.90381C25.0785 9.67822 24.8852 9.46696 24.6166 9.27002C24.348 9.07308 23.9631 8.97461 23.4618 8.97461C22.5666 8.97461 21.9149 9.25391 21.5067 9.8125C21.1021 10.3675 20.8998 11.1463 20.8998 12.1489C20.8998 13.1515 21.1021 13.9321 21.5067 14.4907C21.9149 15.0457 22.5666 15.3232 23.4618 15.3232C23.9774 15.3232 24.3892 15.2051 24.6972 14.9688C25.0087 14.7324 25.2343 14.4854 25.3739 14.2275C25.4849 14.0199 25.6138 13.9572 25.7606 14.0396L26.2064 14.292C26.3353 14.3672 26.3461 14.5104 26.2387 14.7217C26.0274 15.1335 25.6837 15.4772 25.2074 15.7529C24.7312 16.0251 24.1314 16.1611 23.4081 16.1611C22.2444 16.1611 21.351 15.8066 20.7279 15.0977C20.1085 14.3851 19.7987 13.4022 19.7987 12.1489ZM27.3236 9.22168C27.1267 9.22168 27.0282 9.14111 27.0282 8.97998V8.53955C27.0282 8.37842 27.1267 8.29785 27.3236 8.29785H33.0062C33.2032 8.29785 33.3017 8.37842 33.3017 8.53955V8.97998C33.3017 9.14111 33.2032 9.22168 33.0062 9.22168H30.6806V15.7046C30.6806 15.9015 30.591 16 30.412 16H29.9179C29.7388 16 29.6493 15.9015 29.6493 15.7046V9.22168H27.3236ZM34.6767 16C34.4976 16 34.4081 15.9015 34.4081 15.7046V8.59326C34.4081 8.39632 34.4976 8.29785 34.6767 8.29785H35.1708C35.3498 8.29785 35.4394 8.39632 35.4394 8.59326V15.7046C35.4394 15.9015 35.3498 16 35.1708 16H34.6767ZM36.7338 8.65234C36.6443 8.41602 36.6926 8.29785 36.8788 8.29785H37.4267C37.62 8.29785 37.7489 8.38558 37.8134 8.56104L39.559 13.3682C39.6342 13.5794 39.7273 13.8641 39.8383 14.2222C39.9529 14.5767 40.0298 14.8595 40.0692 15.0708H40.0907C40.1301 14.8595 40.2053 14.5767 40.3163 14.2222C40.4309 13.8641 40.5258 13.5794 40.601 13.3682L42.3466 8.56104C42.411 8.38558 42.5399 8.29785 42.7333 8.29785H43.2811C43.4673 8.29785 43.5157 8.41602 43.4262 8.65234L40.8104 15.6724C40.7281 15.8908 40.6099 16 40.456 16H39.704C39.55 16 39.4319 15.8908 39.3495 15.6724L36.7338 8.65234ZM44.7206 16C44.5416 16 44.452 15.9015 44.452 15.7046V8.59326C44.452 8.39632 44.5416 8.29785 44.7206 8.29785H49.4203C49.6173 8.29785 49.7157 8.37842 49.7157 8.53955V8.93701C49.7157 9.09814 49.6173 9.17871 49.4203 9.17871H45.4833V11.5635H49.098C49.295 11.5635 49.3935 11.644 49.3935 11.8052V12.2026C49.3935 12.3638 49.295 12.4443 49.098 12.4443H45.4833V15.1191H49.5814C49.7784 15.1191 49.8769 15.1997 49.8769 15.3608V15.7583C49.8769 15.9194 49.7784 16 49.5814 16H44.7206Z" fill="white"/>
    <path d="M12.5263 16C12.3401 16 12.2917 15.8818 12.3812 15.6455L15.0561 8.62549C15.1384 8.40706 15.2566 8.29785 15.4105 8.29785H16.1625C16.3165 8.29785 16.4346 8.40706 16.517 8.62549L19.1918 15.6455C19.2813 15.8818 19.233 16 19.0468 16H18.4989C18.3091 16 18.1802 15.9123 18.1122 15.7368L17.4408 13.959H14.1322L13.4608 15.7368C13.3928 15.9123 13.2639 16 13.0741 16H12.5263ZM14.4706 13.0781H17.1024L16.2807 10.9297C16.2055 10.7292 16.1303 10.5072 16.0551 10.2637C15.9835 10.0202 15.8975 9.67464 15.7973 9.22705H15.7758C15.6755 9.67464 15.5878 10.0202 15.5126 10.2637C15.441 10.5072 15.3676 10.7292 15.2924 10.9297L14.4706 13.0781ZM19.7987 12.1489C19.7987 10.8957 20.1085 9.91455 20.7279 9.20557C21.351 8.493 22.2444 8.13672 23.4081 8.13672C24.0884 8.13672 24.6506 8.25309 25.0946 8.48584C25.5386 8.71501 25.8573 9.03011 26.0507 9.43115C26.1509 9.63883 26.1348 9.78206 26.0023 9.86084L25.578 10.1079C25.4348 10.1903 25.3077 10.1222 25.1967 9.90381C25.0785 9.67822 24.8852 9.46696 24.6166 9.27002C24.348 9.07308 23.9631 8.97461 23.4618 8.97461C22.5666 8.97461 21.9149 9.25391 21.5067 9.8125C21.1021 10.3675 20.8998 11.1463 20.8998 12.1489C20.8998 13.1515 21.1021 13.9321 21.5067 14.4907C21.9149 15.0457 22.5666 15.3232 23.4618 15.3232C23.9774 15.3232 24.3892 15.2051 24.6972 14.9688C25.0087 14.7324 25.2343 14.4854 25.3739 14.2275C25.4849 14.0199 25.6138 13.9572 25.7606 14.0396L26.2064 14.292C26.3353 14.3672 26.3461 14.5104 26.2387 14.7217C26.0274 15.1335 25.6837 15.4772 25.2074 15.7529C24.7312 16.0251 24.1314 16.1611 23.4081 16.1611C22.2444 16.1611 21.351 15.8066 20.7279 15.0977C20.1085 14.3851 19.7987 13.4022 19.7987 12.1489ZM27.3236 9.22168C27.1267 9.22168 27.0282 9.14111 27.0282 8.97998V8.53955C27.0282 8.37842 27.1267 8.29785 27.3236 8.29785H33.0062C33.2032 8.29785 33.3017 8.37842 33.3017 8.53955V8.97998C33.3017 9.14111 33.2032 9.22168 33.0062 9.22168H30.6806V15.7046C30.6806 15.9015 30.591 16 30.412 16H29.9179C29.7388 16 29.6493 15.9015 29.6493 15.7046V9.22168H27.3236ZM34.6767 16C34.4976 16 34.4081 15.9015 34.4081 15.7046V8.59326C34.4081 8.39632 34.4976 8.29785 34.6767 8.29785H35.1708C35.3498 8.29785 35.4394 8.39632 35.4394 8.59326V15.7046C35.4394 15.9015 35.3498 16 35.1708 16H34.6767ZM36.7338 8.65234C36.6443 8.41602 36.6926 8.29785 36.8788 8.29785H37.4267C37.62 8.29785 37.7489 8.38558 37.8134 8.56104L39.559 13.3682C39.6342 13.5794 39.7273 13.8641 39.8383 14.2222C39.9529 14.5767 40.0298 14.8595 40.0692 15.0708H40.0907C40.1301 14.8595 40.2053 14.5767 40.3163 14.2222C40.4309 13.8641 40.5258 13.5794 40.601 13.3682L42.3466 8.56104C42.411 8.38558 42.5399 8.29785 42.7333 8.29785H43.2811C43.4673 8.29785 43.5157 8.41602 43.4262 8.65234L40.8104 15.6724C40.7281 15.8908 40.6099 16 40.456 16H39.704C39.55 16 39.4319 15.8908 39.3495 15.6724L36.7338 8.65234ZM44.7206 16C44.5416 16 44.452 15.9015 44.452 15.7046V8.59326C44.452 8.39632 44.5416 8.29785 44.7206 8.29785H49.4203C49.6173 8.29785 49.7157 8.37842 49.7157 8.53955V8.93701C49.7157 9.09814 49.6173 9.17871 49.4203 9.17871H45.4833V11.5635H49.098C49.295 11.5635 49.3935 11.644 49.3935 11.8052V12.2026C49.3935 12.3638 49.295 12.4443 49.098 12.4443H45.4833V15.1191H49.5814C49.7784 15.1191 49.8769 15.1997 49.8769 15.3608V15.7583C49.8769 15.9194 49.7784 16 49.5814 16H44.7206Z" stroke="white" stroke-width="0.2" mask="url(#path-2-outside-1_26_10)"/>
    <path d="M66 19C69.866 19 73 15.866 73 12C73 8.13401 69.866 5 66 5C62.134 5 59 8.13401 59 12C59 15.866 62.134 19 66 19Z" fill="white"/>
  </g>
  <defs>
    <clipPath id="clip0_26_10">
      <rect width="82" height="25" fill="white"/>
    </clipPath>
  </defs>
</svg>