<svg width="70" height="25" viewBox="0 0 70 25" fill="none" xmlns="http://www.w3.org/2000/svg">
<rect width="70" height="25" rx="12.5" fill="#0D6EFD"/>
<path d="M9.70436 16C9.5416 16 9.46022 15.9105 9.46022 15.7314V9.2666C9.46022 9.08757 9.5416 8.99805 9.70436 8.99805H13.9768C14.1559 8.99805 14.2454 9.07129 14.2454 9.21777V9.5791C14.2454 9.72559 14.1559 9.79883 13.9768 9.79883H10.3977V11.9668H13.6839C13.8629 11.9668 13.9524 12.04 13.9524 12.1865V12.5479C13.9524 12.6943 13.8629 12.7676 13.6839 12.7676H10.3977V15.1992H14.1233C14.3023 15.1992 14.3919 15.2725 14.3919 15.4189V15.7803C14.3919 15.9268 14.3023 16 14.1233 16H9.70436ZM15.9055 16C15.7428 16 15.6614 15.9105 15.6614 15.7314V9.2666C15.6614 9.08757 15.7428 8.99805 15.9055 8.99805H16.5305C16.7584 8.99805 16.9212 9.07943 17.0188 9.24219L20.0755 14.3643H20.095C20.0885 14.234 20.0852 14.1038 20.0852 13.9736V9.2666C20.0852 9.08757 20.1666 8.99805 20.3294 8.99805H20.7786C20.9413 8.99805 21.0227 9.08757 21.0227 9.2666V15.7314C21.0227 15.9105 20.9413 16 20.7786 16H20.3489C20.121 16 19.9583 15.9186 19.8606 15.7559L16.6087 10.3213H16.5891C16.5956 10.4515 16.5989 10.5817 16.5989 10.7119V15.7314C16.5989 15.9105 16.5175 16 16.3548 16H15.9055ZM22.3313 16C22.162 16 22.1181 15.8926 22.1995 15.6777L24.6311 9.2959C24.706 9.09733 24.8134 8.99805 24.9534 8.99805H25.637C25.777 8.99805 25.8844 9.09733 25.9592 9.2959L28.3909 15.6777C28.4723 15.8926 28.4283 16 28.259 16H27.761C27.5885 16 27.4713 15.9202 27.4094 15.7607L26.7991 14.1445H23.7913L23.1809 15.7607C23.1191 15.9202 23.0019 16 22.8294 16H22.3313ZM24.0989 13.3438H26.4915L25.7444 11.3906C25.676 11.2083 25.6077 11.0065 25.5393 10.7852C25.4742 10.5638 25.3961 10.2497 25.3049 9.84277H25.2854C25.1943 10.2497 25.1145 10.5638 25.0462 10.7852C24.9811 11.0065 24.9143 11.2083 24.846 11.3906L24.0989 13.3438ZM29.5676 16C29.4049 16 29.3235 15.9105 29.3235 15.7314V9.2666C29.3235 9.08757 29.4049 8.99805 29.5676 8.99805H31.4719C32.5787 8.99805 33.3242 9.17708 33.7083 9.53516C34.0924 9.89323 34.2844 10.3245 34.2844 10.8291C34.2844 11.2295 34.1249 11.5697 33.8059 11.8496C33.4869 12.1263 33.1777 12.2891 32.8782 12.3379V12.3525C33.207 12.3818 33.5732 12.5462 33.9768 12.8457C34.3837 13.1419 34.5872 13.5456 34.5872 14.0566C34.5872 14.61 34.3821 15.0723 33.9719 15.4434C33.565 15.8145 32.8131 16 31.7161 16H29.5676ZM30.261 15.1992H31.5598C32.2597 15.1992 32.7724 15.113 33.0979 14.9404C33.4234 14.7679 33.5862 14.4635 33.5862 14.0273C33.5862 13.6237 33.4202 13.3112 33.0882 13.0898C32.7594 12.8685 32.2499 12.7578 31.5598 12.7578H30.261V15.1992ZM30.261 12.0547H31.4866C32.0302 12.0547 32.4729 11.9391 32.8147 11.708C33.1598 11.4736 33.3323 11.1807 33.3323 10.8291C33.3323 10.4938 33.2037 10.2383 32.9465 10.0625C32.6894 9.88672 32.2027 9.79883 31.4866 9.79883H30.261V12.0547ZM36.1985 16C36.0357 16 35.9544 15.9105 35.9544 15.7314V9.2666C35.9544 9.08757 36.0357 8.99805 36.1985 8.99805H36.6477C36.8105 8.99805 36.8919 9.08757 36.8919 9.2666V15.1992H40.1292C40.3082 15.1992 40.3977 15.2725 40.3977 15.4189V15.7803C40.3977 15.9268 40.3082 16 40.1292 16H36.1985ZM41.7454 16C41.5826 16 41.5012 15.9105 41.5012 15.7314V9.2666C41.5012 9.08757 41.5826 8.99805 41.7454 8.99805H46.0178C46.1969 8.99805 46.2864 9.07129 46.2864 9.21777V9.5791C46.2864 9.72559 46.1969 9.79883 46.0178 9.79883H42.4387V11.9668H45.7249C45.9039 11.9668 45.9934 12.04 45.9934 12.1865V12.5479C45.9934 12.6943 45.9039 12.7676 45.7249 12.7676H42.4387V15.1992H46.1643C46.3434 15.1992 46.4329 15.2725 46.4329 15.4189V15.7803C46.4329 15.9268 46.3434 16 46.1643 16H41.7454Z" fill="white"/>
<ellipse cx="57.5342" cy="12" rx="6.71233" ry="7" fill="white"/>
</svg>
